<?xml version="1.0" encoding="UTF-8" standalone="no"?><!-- Generator: Gravit.io --><svg xmlns="http://www.w3.org/2000/svg" xmlns:xlink="http://www.w3.org/1999/xlink" style="isolation:isolate" viewBox="0 0 128 128" width="128pt" height="128pt"><defs><clipPath id="_clipPath_CCZubmC0sz3rdN9El7gzdIgLvERTdphJ"><rect width="128" height="128"/></clipPath></defs><g clip-path="url(#_clipPath_CCZubmC0sz3rdN9El7gzdIgLvERTdphJ)"><path d=" M 74.292 108.658 L 74.292 108.628 L 74.292 108.488 C 74.292 108.488 74.292 108.478 74.292 108.478 C 74.292 108.058 74.332 107.628 74.412 107.208 C 74.442 107.068 74.482 106.928 74.532 106.788 C 74.552 106.758 74.572 106.728 74.582 106.708 C 74.642 106.658 74.702 106.618 74.762 106.568 C 75.042 106.398 75.352 106.248 75.672 106.148 C 76.322 105.908 77.002 105.728 77.682 105.598 C 78.702 105.408 79.722 105.278 80.762 105.208 C 82.012 105.108 83.262 105.058 84.522 105.058 C 84.522 105.058 84.522 105.058 84.522 105.058 L 84.832 105.058 L 84.852 105.058 L 105.442 105.058 C 108.162 105.058 110.782 103.988 112.712 102.068 C 114.662 100.168 115.772 97.568 115.812 94.848 C 115.812 94.838 115.812 94.828 115.812 94.818 L 115.812 94.798 L 115.812 94.788 L 115.812 94.718 L 115.862 26.368 L 115.862 26.358 C 115.862 23.608 114.772 20.968 112.822 19.018 C 110.872 17.088 108.242 15.998 105.492 15.998 C 105.492 15.998 105.492 15.998 105.492 15.998 L 23.412 15.998 C 23.412 15.998 23.412 15.998 23.412 15.998 C 20.662 15.998 18.032 17.088 16.082 19.018 C 14.132 20.968 13.042 23.608 13.042 26.358 L 13.042 94.718 L 13.042 94.788 L 13.042 94.798 L 13.042 94.808 C 13.042 94.818 13.042 94.828 13.042 94.838 C 13.082 97.558 14.192 100.168 16.142 102.078 C 18.072 103.988 20.692 105.058 23.412 105.058 C 23.412 105.058 23.412 105.058 23.412 105.058 L 43.152 105.058 L 43.162 105.058 L 43.472 105.058 C 43.472 105.058 43.472 105.058 43.472 105.058 C 44.712 105.058 45.952 105.108 47.192 105.208 C 48.212 105.278 49.232 105.408 50.242 105.598 C 50.902 105.718 51.562 105.898 52.202 106.128 C 52.532 106.248 52.852 106.398 53.142 106.578 C 53.202 106.618 53.252 106.658 53.292 106.698 C 53.312 106.718 53.322 106.748 53.342 106.768 C 53.392 106.918 53.442 107.068 53.482 107.228 C 53.542 107.648 53.582 108.068 53.582 108.488 L 53.582 108.618 L 53.582 108.628 C 53.582 108.628 53.582 108.628 53.582 108.628 C 53.582 111.368 54.672 114.008 56.602 115.948 C 58.542 117.908 61.182 119.008 63.942 119.008 C 66.692 119.008 69.332 117.908 71.282 115.958 C 73.202 114.028 74.292 111.398 74.292 108.668 C 74.292 108.668 74.292 108.668 74.292 108.668 L 74.292 108.658 Z " fill="rgb(255,255,255)"/><path d=" M 107.229 94.72 C 107.216 95.695 106.422 96.479 105.446 96.479 L 84.849 96.479 C 71.25 96.479 65.711 99.997 65.711 108.651 C 65.711 109.629 64.918 110.422 63.94 110.422 C 62.962 110.422 62.169 109.629 62.169 108.651 C 62.169 99.997 56.63 96.479 43.151 96.479 L 23.41 96.479 C 22.435 96.479 21.64 95.695 21.627 94.72 L 21.627 30.936 C 21.627 29.951 22.426 29.153 23.41 29.153 L 28.165 29.153 L 28.165 85.377 C 28.165 86.69 29.229 87.754 30.542 87.754 L 45.956 87.754 C 58.865 87.754 61.527 91.582 61.527 97.263 C 61.527 98.576 62.592 99.641 63.905 99.641 C 65.217 99.641 66.282 98.576 66.282 97.263 C 66.282 91.51 68.921 87.754 81.853 87.754 L 98.362 87.754 C 99.675 87.754 100.739 86.69 100.739 85.377 L 100.739 29.153 L 105.494 29.153 C 106.479 29.153 107.277 29.951 107.277 30.936 L 107.229 94.72 L 107.229 94.72 L 107.229 94.72 Z  M 81.901 23.376 L 95.961 23.376 L 95.961 82.976 L 79.714 82.976 L 78.311 82.976 L 77.527 82.976 L 76.076 83.118 L 75.197 83.118 L 73.652 83.38 L 72.796 83.546 C 72.178 83.689 71.56 83.879 70.941 84.069 L 70.395 84.236 C 69.577 84.506 68.782 84.84 68.017 85.234 L 67.471 85.567 C 67.036 85.804 66.615 86.066 66.211 86.352 L 66.211 38.948 C 66.217 34.799 67.876 30.824 70.82 27.902 C 73.765 24.98 77.752 23.351 81.901 23.376 L 81.901 23.376 L 81.901 23.376 Z  M 71.292 108.658 L 71.292 108.628 L 71.292 108.488 C 71.292 107.878 71.352 107.258 71.472 106.658 C 71.542 106.248 71.662 105.848 71.832 105.468 C 71.972 105.198 72.142 104.948 72.332 104.718 C 72.572 104.468 72.842 104.238 73.142 104.048 C 73.622 103.748 74.142 103.498 74.682 103.318 C 75.482 103.028 76.302 102.808 77.132 102.648 C 78.262 102.438 79.392 102.298 80.532 102.218 C 81.862 102.108 83.192 102.058 84.522 102.058 L 84.832 102.058 L 84.852 102.058 L 105.442 102.058 C 105.442 102.058 105.442 102.058 105.442 102.058 C 107.382 102.058 109.242 101.298 110.612 99.938 C 111.992 98.578 112.782 96.738 112.812 94.798 C 112.812 94.798 112.812 94.788 112.812 94.788 L 112.812 94.718 L 112.862 26.368 L 112.862 26.358 C 112.862 24.408 112.082 22.528 110.702 21.148 C 109.322 19.778 107.442 18.998 105.492 18.998 C 105.492 18.998 105.492 18.998 105.492 18.998 L 23.412 18.998 C 23.412 18.998 23.412 18.998 23.412 18.998 C 21.462 18.998 19.582 19.778 18.202 21.148 C 16.822 22.528 16.042 24.408 16.042 26.358 L 16.042 94.718 L 16.042 94.788 C 16.042 94.788 16.042 94.798 16.042 94.798 C 16.072 96.738 16.862 98.588 18.242 99.938 C 19.622 101.298 21.482 102.058 23.412 102.058 C 23.412 102.058 23.412 102.058 23.412 102.058 L 43.152 102.058 L 43.162 102.058 L 43.472 102.058 C 44.792 102.058 46.112 102.108 47.422 102.218 C 48.552 102.298 49.672 102.438 50.782 102.648 C 51.612 102.798 52.422 103.018 53.212 103.308 C 53.752 103.498 54.262 103.738 54.742 104.038 C 55.042 104.228 55.312 104.458 55.552 104.728 C 55.742 104.948 55.912 105.198 56.042 105.458 C 56.212 105.848 56.342 106.248 56.422 106.658 C 56.532 107.258 56.582 107.878 56.582 108.488 L 56.582 108.618 C 56.582 108.628 56.582 108.628 56.582 108.628 C 56.582 110.578 57.362 112.458 58.732 113.838 C 60.112 115.228 61.992 116.008 63.942 116.008 C 65.892 116.008 67.772 115.228 69.152 113.838 C 70.522 112.468 71.292 110.608 71.292 108.668 C 71.292 108.668 71.292 108.658 71.292 108.658 L 71.292 108.658 L 71.292 108.658 Z  M 32.896 23.376 L 45.956 23.376 C 54.56 23.376 61.538 30.344 61.551 38.948 L 61.551 86.613 C 61.154 86.328 60.741 86.066 60.315 85.829 L 59.744 85.472 C 59.017 85.084 58.262 84.751 57.486 84.473 L 56.796 84.331 C 56.202 84.141 55.584 83.95 54.99 83.808 L 54.205 83.546 L 52.684 83.285 L 51.78 83.285 L 50.354 83.142 L 49.546 83.142 L 48.143 83.142 L 32.896 83.142 L 32.896 23.376 Z " fill-rule="evenodd" fill="rgb(58,145,4)"/><linearGradient id="_lgradient_0" x1="0.5031421554541864" y1="0.006604086016414656" x2="0.5005053100869632" y2="0.8394325136425305" gradientTransform="matrix(94.81,0,0,95.008,17.047,19.998)" gradientUnits="userSpaceOnUse"><stop offset="1.6666666666666667%" stop-opacity="1" style="stop-color:rgb(212,227,199)"/><stop offset="98.75%" stop-opacity="1" style="stop-color:rgb(72,168,12)"/></linearGradient><path d=" M 107.229 94.72 C 107.216 95.695 106.422 96.479 105.446 96.479 L 84.849 96.479 C 71.25 96.479 65.711 99.997 65.711 108.651 C 65.711 109.629 64.918 110.422 63.94 110.422 C 62.962 110.422 62.169 109.629 62.169 108.651 C 62.169 99.997 56.63 96.479 43.151 96.479 L 23.41 96.479 C 22.435 96.479 21.64 95.695 21.627 94.72 L 21.627 30.936 C 21.627 29.951 22.426 29.153 23.41 29.153 L 28.165 29.153 L 28.165 85.377 C 28.165 86.69 29.229 87.754 30.542 87.754 L 45.956 87.754 C 58.865 87.754 61.527 91.582 61.527 97.263 C 61.527 98.576 62.592 99.641 63.905 99.641 C 65.217 99.641 66.282 98.576 66.282 97.263 C 66.282 91.51 68.921 87.754 81.853 87.754 L 98.362 87.754 C 99.675 87.754 100.739 86.69 100.739 85.377 L 100.739 29.153 L 105.494 29.153 C 106.479 29.153 107.277 29.951 107.277 30.936 L 107.229 94.72 L 107.229 94.72 L 107.229 94.72 Z  M 81.901 23.376 L 95.961 23.376 L 95.961 82.976 L 79.714 82.976 L 78.311 82.976 L 77.527 82.976 L 76.076 83.118 L 75.197 83.118 L 73.652 83.38 L 72.796 83.546 C 72.178 83.689 71.56 83.879 70.941 84.069 L 70.395 84.236 C 69.577 84.506 68.782 84.84 68.017 85.234 L 67.471 85.567 C 67.036 85.804 66.615 86.066 66.211 86.352 L 66.211 38.948 C 66.217 34.799 67.876 30.824 70.82 27.902 C 73.765 24.98 77.752 23.351 81.901 23.376 L 81.901 23.376 L 81.901 23.376 Z  M 105.49 19.998 C 107.185 19.998 108.797 20.666 109.997 21.857 C 111.188 23.049 111.857 24.67 111.857 26.356 C 111.857 26.356 111.857 26.356 111.857 26.365 L 111.811 94.72 C 111.811 94.739 111.811 94.757 111.811 94.785 C 111.784 96.452 111.106 98.055 109.915 99.228 C 108.724 100.401 107.12 101.061 105.444 101.061 L 105.444 101.061 L 105.444 101.061 L 84.851 101.061 C 84.841 101.061 84.841 101.061 84.832 101.061 C 83.376 101.051 81.919 101.106 80.462 101.216 C 79.28 101.299 78.117 101.455 76.953 101.665 C 76.073 101.83 75.194 102.068 74.351 102.371 C 73.737 102.581 73.16 102.856 72.61 103.204 C 72.235 103.443 71.886 103.727 71.584 104.057 C 71.327 104.359 71.108 104.689 70.934 105.037 C 70.723 105.495 70.576 105.981 70.485 106.475 C 70.347 107.19 70.283 107.905 70.292 108.628 C 70.301 110.314 69.633 111.936 68.441 113.136 C 67.25 114.327 65.629 115.005 63.943 115.005 C 62.248 115.005 60.635 114.327 59.444 113.136 C 58.253 111.936 57.585 110.314 57.585 108.628 C 57.594 107.905 57.53 107.19 57.401 106.475 C 57.31 105.981 57.154 105.495 56.943 105.037 C 56.769 104.68 56.558 104.35 56.293 104.057 C 55.99 103.727 55.651 103.434 55.276 103.195 C 54.735 102.856 54.158 102.581 53.553 102.362 C 52.71 102.059 51.849 101.83 50.97 101.665 C 49.824 101.455 48.661 101.299 47.497 101.216 C 46.059 101.106 44.611 101.051 43.164 101.061 C 43.164 101.061 43.154 101.061 43.154 101.061 L 23.415 101.061 L 23.415 101.061 L 23.415 101.061 C 21.738 101.061 20.135 100.401 18.943 99.228 C 17.752 98.055 17.065 96.452 17.047 94.785 C 17.047 94.757 17.047 94.739 17.047 94.72 L 17.047 26.356 C 17.047 24.67 17.716 23.049 18.907 21.857 C 20.107 20.666 21.72 19.998 23.415 19.998 L 105.49 19.998 L 105.49 19.998 L 105.49 19.998 Z  M 32.896 23.376 L 45.956 23.376 C 54.56 23.376 61.538 30.344 61.551 38.948 L 61.551 86.613 C 61.154 86.328 60.741 86.066 60.315 85.829 L 59.744 85.472 C 59.017 85.084 58.262 84.751 57.486 84.473 L 56.796 84.331 C 56.202 84.141 55.584 83.95 54.99 83.808 L 54.205 83.546 L 52.684 83.285 L 51.78 83.285 L 50.354 83.142 L 49.546 83.142 L 48.143 83.142 L 32.896 83.142 L 32.896 23.376 Z " fill-rule="evenodd" fill="url(#_lgradient_0)"/><path d=" M 107.229 94.72 C 107.216 95.695 106.422 96.479 105.446 96.479 L 84.849 96.479 C 71.25 96.479 65.711 99.997 65.711 108.651 C 65.711 109.629 64.918 110.422 63.94 110.422 C 62.962 110.422 62.169 109.629 62.169 108.651 C 62.169 99.997 56.63 96.479 43.151 96.479 L 23.41 96.479 C 22.435 96.479 21.64 95.695 21.627 94.72 L 21.627 30.936 C 21.627 29.951 22.426 29.153 23.41 29.153 L 28.165 29.153 L 28.165 85.377 C 28.165 86.69 29.229 87.754 30.542 87.754 L 45.956 87.754 C 58.865 87.754 61.527 91.582 61.527 97.263 C 61.527 98.576 62.592 99.641 63.905 99.641 C 65.217 99.641 66.282 98.576 66.282 97.263 C 66.282 91.51 68.921 87.754 81.853 87.754 L 98.362 87.754 C 99.675 87.754 100.739 86.69 100.739 85.377 L 100.739 29.153 L 105.494 29.153 C 106.479 29.153 107.277 29.951 107.277 30.936 L 107.229 94.72 L 107.229 94.72 L 107.229 94.72 Z  M 81.901 23.376 L 95.961 23.376 L 95.961 82.976 L 79.714 82.976 L 78.311 82.976 L 77.527 82.976 L 76.076 83.118 L 75.197 83.118 L 73.652 83.38 L 72.796 83.546 C 72.178 83.689 71.56 83.879 70.941 84.069 L 70.395 84.236 C 69.577 84.506 68.782 84.84 68.017 85.234 L 67.471 85.567 C 67.036 85.804 66.615 86.066 66.211 86.352 L 66.211 38.948 C 66.217 34.799 67.876 30.824 70.82 27.902 C 73.765 24.98 77.752 23.351 81.901 23.376 L 81.901 23.376 L 81.901 23.376 Z  M 23.412 20.998 C 21.992 20.998 20.622 21.568 19.612 22.568 C 18.612 23.568 18.042 24.938 18.042 26.358 C 18.042 26.358 18.042 26.358 18.042 26.358 L 18.042 94.718 L 18.042 94.778 C 18.062 96.188 18.642 97.528 19.642 98.518 C 20.652 99.508 22.002 100.058 23.412 100.058 L 43.152 100.058 L 43.162 100.058 L 43.472 100.058 C 43.472 100.058 43.472 100.058 43.472 100.058 C 44.842 100.058 46.212 100.118 47.572 100.218 C 48.772 100.308 49.972 100.458 51.152 100.678 C 52.082 100.858 53.002 101.098 53.892 101.418 C 54.562 101.658 55.202 101.978 55.812 102.348 C 56.262 102.638 56.672 102.988 57.032 103.388 C 57.362 103.758 57.642 104.168 57.852 104.608 C 58.092 105.148 58.272 105.718 58.382 106.298 C 58.512 107.018 58.582 107.758 58.582 108.488 C 58.582 108.498 58.582 108.498 58.582 108.498 L 58.582 108.628 C 58.582 110.058 59.152 111.418 60.152 112.428 C 61.162 113.438 62.522 114.008 63.942 114.008 C 65.362 114.008 66.732 113.438 67.732 112.428 C 68.732 111.428 69.292 110.078 69.292 108.668 L 69.292 108.638 L 69.292 108.498 C 69.292 108.498 69.292 108.498 69.292 108.488 C 69.292 107.758 69.362 107.018 69.502 106.288 C 69.612 105.708 69.782 105.148 70.032 104.608 C 70.252 104.168 70.522 103.758 70.832 103.398 C 71.202 102.998 71.622 102.648 72.072 102.358 C 72.682 101.978 73.342 101.658 74.022 101.428 C 74.912 101.108 75.832 100.858 76.772 100.678 C 77.962 100.458 79.172 100.308 80.392 100.218 C 81.762 100.118 83.142 100.058 84.522 100.058 C 84.522 100.058 84.522 100.058 84.522 100.058 L 84.832 100.058 L 84.852 100.058 L 105.442 100.058 C 106.852 100.058 108.212 99.508 109.212 98.518 C 110.212 97.528 110.792 96.188 110.812 94.778 L 110.812 94.718 L 110.862 26.368 L 110.862 26.358 C 110.862 26.358 110.862 26.358 110.862 26.358 C 110.862 24.938 110.292 23.568 109.292 22.568 C 108.282 21.558 106.912 20.998 105.492 20.998 L 23.412 20.998 L 23.412 20.998 L 23.412 20.998 Z  M 32.896 23.376 L 45.956 23.376 C 54.56 23.376 61.538 30.344 61.551 38.948 L 61.551 86.613 C 61.154 86.328 60.741 86.066 60.315 85.829 L 59.744 85.472 C 59.017 85.084 58.262 84.751 57.486 84.473 L 56.796 84.331 C 56.202 84.141 55.584 83.95 54.99 83.808 L 54.205 83.546 L 52.684 83.285 L 51.78 83.285 L 50.354 83.142 L 49.546 83.142 L 48.143 83.142 L 32.896 83.142 L 32.896 23.376 Z " fill-rule="evenodd" fill="rgb(104,183,35)"/><path d="M 5.293 40.86 L 53.667 40.86 C 54.932 40.86 55.96 41.888 55.96 43.153 L 55.96 57.677 C 55.96 58.942 54.932 59.97 53.667 59.97 L 5.293 59.97 C 4.028 59.97 3 58.942 3 57.677 L 3 43.153 C 3 41.888 4.028 40.86 5.293 40.86 Z" style="stroke:none;fill:#206B00;stroke-miterlimit:10;"/><g><g clip-path="url(#_clipPath_9goxhsqO98BFh8KpiIBBlS6sdXw15iUX)"><text transform="matrix(0.542,0,0,0.542,4.673,49.949)" style="font-family:'Rubik';font-weight:800;font-size:20px;font-style:normal;fill:#ffffff;stroke:none;">PDF</text><text transform="matrix(0.542,0,0,0.542,4.673,58.292)" style="font-family:'Rubik';font-weight:500;font-size:20px;font-style:normal;fill:#ffffff;stroke:none;">BOOKLET</text></g><defs><clipPath id="_clipPath_9goxhsqO98BFh8KpiIBBlS6sdXw15iUX"><rect x="0" y="0" width="93" height="39.105" transform="matrix(0.542,0,0,0.542,4.673,39.822)"/></clipPath></defs></g></g></svg>